<svg width="473" height="104" viewBox="0 0 473 104" fill="none" xmlns="http://www.w3.org/2000/svg">
<path d="M47.4896 44.8605C55.1562 55.7079 57.2803 67.6595 53.3086 80.3906C51.2851 86.886 48.1684 92.9398 45.491 99.1754H45.4914C45.1072 100.029 44.55 100.786 43.8573 101.397C43.303 101.923 42.6013 102.254 41.8534 102.34C41.1051 102.426 40.3502 102.265 39.6973 101.878C39.0038 101.573 38.4306 101.035 38.0702 100.351C37.7098 99.6671 37.5834 98.8776 37.7114 98.1101C37.9835 96.8487 38.4057 95.6269 38.9683 94.4729C40.9664 89.7311 43.2416 85.0933 45.0262 80.2608C49.1862 68.9847 47.5399 58.5011 40.4763 48.9138C39.0939 47.043 37.6987 45.1725 36.4292 43.2108C33.5383 38.7418 34.9085 35.2865 39.9862 34.1172C41.9843 33.6626 44.0333 33.3509 45.9938 32.8181C53.4341 30.6356 56.7774 26.1539 56.8025 18.1254L56.803 18.125C56.6757 15.6545 56.373 13.1971 55.898 10.7723C55.7724 9.96674 55.4708 9.18733 55.2945 8.38222C54.6158 5.45927 55.3952 3.48487 57.4564 2.84799C59.5176 2.21156 61.2269 3.43241 62.2198 6.29068V6.29026C63.9729 11.8926 64.4332 17.8403 63.5646 23.6591C62.4084 31.3369 58.0217 36.65 50.9083 39.469C49.1359 40.1706 47.3137 40.7681 45.2276 41.5086C46.0945 42.795 46.7733 43.8472 47.4897 44.8603L47.4896 44.8605ZM69.2831 59.1505H69.2835C68.9346 52.773 67.3083 46.5406 64.5073 40.8463C63.4768 38.586 61.6292 37.8193 59.7815 38.5987C57.9339 39.378 57.2679 41.1968 57.9339 43.6521C58.2542 44.7855 58.6445 45.8963 59.1027 46.9781C61.7326 53.4203 62.539 60.5027 61.4282 67.3998C60.2213 76.1298 58.5373 84.7946 57.0166 93.5375C56.5956 95.4916 56.2851 97.4698 56.0867 99.4612C55.9242 100.464 56.1476 101.492 56.7089 102.328C57.2703 103.162 58.1246 103.737 59.0904 103.93C60.1165 104.129 61.177 103.9 62.0406 103.294C62.9047 102.688 63.502 101.755 63.7029 100.696C64.2184 98.903 64.52 97.0322 64.9598 95.1876V95.1872C67.3131 84.3792 68.7761 73.3842 69.3333 62.3202C69.2834 61.2161 69.3211 60.1509 69.2834 59.0983L69.2831 59.1505ZM38.8803 24.9714C35.489 24.897 32.2593 23.4592 29.8774 20.9634C27.4955 18.4671 26.1486 15.1095 26.1233 11.6038C26.2055 8.45209 27.4922 5.46234 29.7015 3.28832C31.9108 1.11429 34.863 -0.0667977 37.9123 0.00292007C44.6616 0.249877 50.5812 6.49837 50.4806 13.3316C50.5142 16.4905 49.2917 19.5255 47.0984 21.7258C44.9054 23.9264 41.9344 25.0999 38.8803 24.9713V24.9714ZM38.9555 16.6829C39.8785 16.7781 40.7962 16.4546 41.4713 15.797C42.146 15.1394 42.5121 14.2115 42.4749 13.2534C42.3837 11.9572 41.826 10.7431 40.9116 9.85083C39.9972 8.95897 38.7928 8.45322 37.5355 8.43374C36.608 8.37327 35.7026 8.7416 35.064 9.43893C34.4253 10.1367 34.1197 11.0916 34.2302 12.0451C34.323 13.2859 34.8574 14.4467 35.7304 15.303C36.6031 16.1598 37.7523 16.6516 38.9555 16.6829ZM23.0691 23.1788V23.1784C22.525 23.3429 22.0018 23.5742 21.5108 23.8672C16.1189 26.8938 10.6643 29.8819 5.36042 33.0907C2.19864 35.0097 0.187384 38.4485 0.01237 42.2338C-0.16233 46.0194 1.52246 49.6405 4.4931 51.8623C5.05564 52.3765 5.76177 52.6924 6.50969 52.7647C7.25716 52.837 8.00794 52.6624 8.65312 52.2653C9.27785 51.9469 9.78595 51.428 10.1006 50.7865C10.4156 50.1446 10.5207 49.4142 10.4001 48.7055C10.1701 47.5856 9.80723 46.4988 9.31918 45.4708C8.77872 44.1717 8.06234 42.9767 7.29567 41.3008C8.76606 40.2744 9.80934 39.43 11.0031 38.7026C15.2511 36.1044 19.5117 33.675 23.7726 31.1419C24.6616 30.6543 25.5031 30.08 26.2863 29.4271C26.9494 28.8591 27.4044 28.0743 27.5758 27.2018C27.7476 26.3299 27.6249 25.4236 27.2288 24.6332C26.7927 23.9443 26.148 23.4242 25.3951 23.154C24.6427 22.8838 23.8245 22.8787 23.0688 23.1392L23.0691 23.1788Z" fill="#022601"/>
<path d="M472.787 72.5599C472.787 73.7485 472.376 74.7542 471.553 75.577C470.776 76.3542 469.793 76.7427 468.604 76.7427C467.461 76.7427 466.501 76.3542 465.724 75.577C464.947 74.7542 464.559 73.7485 464.559 72.5599V30.1827C464.559 28.9942 464.947 28.0113 465.724 27.2342C466.547 26.4113 467.553 25.9999 468.741 25.9999C469.93 25.9999 470.89 26.4113 471.621 27.2342C472.399 28.0113 472.787 28.9942 472.787 30.1827V72.5599Z" fill="#022601"/>
<path d="M450.849 39.3712C452.037 39.3712 453.02 39.7598 453.797 40.5369C454.574 41.3141 454.963 42.3198 454.963 43.5541V72.5598C454.963 73.7484 454.574 74.7541 453.797 75.5769C453.02 76.3541 452.037 76.7426 450.849 76.7426C449.66 76.7426 448.677 76.3541 447.9 75.5769C447.123 74.7541 446.734 73.7484 446.734 72.5598V69.1998L448.243 69.8169C448.243 70.4112 447.923 71.1426 447.283 72.0112C446.643 72.8341 445.774 73.6569 444.677 74.4798C443.58 75.3026 442.277 76.0112 440.769 76.6055C439.306 77.1541 437.706 77.4284 435.969 77.4284C432.814 77.4284 429.957 76.6284 427.397 75.0284C424.837 73.3826 422.803 71.1426 421.294 68.3084C419.832 65.4284 419.1 62.1369 419.1 58.4341C419.1 54.6855 419.832 51.3941 421.294 48.5598C422.803 45.6798 424.814 43.4398 427.329 41.8398C429.843 40.1941 432.632 39.3712 435.694 39.3712C437.66 39.3712 439.466 39.6684 441.112 40.2626C442.757 40.8569 444.174 41.6112 445.363 42.5255C446.597 43.4398 447.534 44.3769 448.174 45.3369C448.86 46.2512 449.203 47.0284 449.203 47.6684L446.734 48.5598V43.5541C446.734 42.3655 447.123 41.3826 447.9 40.6055C448.677 39.7826 449.66 39.3712 450.849 39.3712ZM436.997 69.8855C439.009 69.8855 440.769 69.3826 442.277 68.3769C443.786 67.3712 444.952 65.9998 445.774 64.2626C446.643 62.5255 447.077 60.5826 447.077 58.4341C447.077 56.2398 446.643 54.2741 445.774 52.5369C444.952 50.7998 443.786 49.4284 442.277 48.4226C440.769 47.4169 439.009 46.9141 436.997 46.9141C435.032 46.9141 433.294 47.4169 431.786 48.4226C430.277 49.4284 429.089 50.7998 428.22 52.5369C427.397 54.2741 426.986 56.2398 426.986 58.4341C426.986 60.5826 427.397 62.5255 428.22 64.2626C429.089 65.9998 430.277 67.3712 431.786 68.3769C433.294 69.3826 435.032 69.8855 436.997 69.8855Z" fill="#022601"/>
<path d="M412.358 72.5599C412.358 73.7485 411.969 74.7542 411.192 75.5771C410.415 76.3542 409.432 76.7428 408.243 76.7428C407.055 76.7428 406.072 76.3542 405.295 75.5771C404.518 74.7542 404.129 73.7485 404.129 72.5599V44.2399C404.129 43.0514 404.518 42.0685 405.295 41.2914C406.072 40.4685 407.055 40.0571 408.243 40.0571C409.432 40.0571 410.415 40.4685 411.192 41.2914C411.969 42.0685 412.358 43.0514 412.358 44.2399V72.5599ZM408.175 35.5999C406.62 35.5999 405.523 35.3485 404.883 34.8457C404.243 34.3428 403.923 33.4514 403.923 32.1714V30.8685C403.923 29.5428 404.266 28.6514 404.952 28.1942C405.683 27.6914 406.78 27.4399 408.243 27.4399C409.843 27.4399 410.963 27.6914 411.603 28.1942C412.243 28.6971 412.563 29.5885 412.563 30.8685V32.1714C412.563 33.4971 412.22 34.4114 411.535 34.9142C410.849 35.3714 409.729 35.5999 408.175 35.5999Z" fill="#022601"/>
<path d="M391.585 25.9999C392.774 25.9999 393.757 26.3884 394.534 27.1656C395.311 27.9427 395.7 28.9484 395.7 30.1827V72.5599C395.7 73.7484 395.311 74.7542 394.534 75.577C393.757 76.3542 392.774 76.7427 391.585 76.7427C390.397 76.7427 389.414 76.3542 388.637 75.577C387.86 74.7542 387.471 73.7484 387.471 72.5599V69.1999L388.98 69.817C388.98 70.4113 388.66 71.1427 388.02 72.0113C387.38 72.8342 386.511 73.657 385.414 74.4799C384.317 75.3027 383.014 76.0113 381.505 76.6056C380.043 77.1542 378.443 77.4284 376.705 77.4284C373.551 77.4284 370.694 76.6284 368.134 75.0284C365.574 73.3827 363.54 71.1427 362.031 68.3084C360.568 65.4284 359.837 62.137 359.837 58.4342C359.837 54.6856 360.568 51.3942 362.031 48.5599C363.54 45.6799 365.551 43.4399 368.065 41.8399C370.58 40.1942 373.368 39.3713 376.431 39.3713C378.397 39.3713 380.203 39.6684 381.848 40.2627C383.494 40.857 384.911 41.6113 386.1 42.5256C387.334 43.4399 388.271 44.377 388.911 45.337C389.597 46.2513 389.94 47.0284 389.94 47.6684L387.471 48.5599V30.1827C387.471 28.9942 387.86 28.0113 388.637 27.2342C389.414 26.4113 390.397 25.9999 391.585 25.9999ZM377.734 69.8856C379.745 69.8856 381.505 69.3827 383.014 68.377C384.523 67.3713 385.688 65.9999 386.511 64.2627C387.38 62.5256 387.814 60.5827 387.814 58.4342C387.814 56.2399 387.38 54.2742 386.511 52.537C385.688 50.7999 384.523 49.4284 383.014 48.4227C381.505 47.417 379.745 46.9142 377.734 46.9142C375.768 46.9142 374.031 47.417 372.523 48.4227C371.014 49.4284 369.825 50.7999 368.957 52.537C368.134 54.2742 367.723 56.2399 367.723 58.4342C367.723 60.5827 368.134 62.5256 368.957 64.2627C369.825 65.9999 371.014 67.3713 372.523 68.377C374.031 69.3827 375.768 69.8856 377.734 69.8856Z" fill="#022601"/>
<path d="M339.579 77.4283C336.059 77.4283 332.95 76.674 330.253 75.1655C327.556 73.6569 325.453 71.554 323.944 68.8569C322.436 66.1598 321.682 63.0055 321.682 59.394C321.682 55.5083 322.436 52.194 323.944 49.4512C325.499 46.7083 327.487 44.6055 329.91 43.1426C332.379 41.634 334.984 40.8798 337.727 40.8798C339.739 40.8798 341.682 41.2455 343.556 41.9769C345.476 42.6626 347.167 43.714 348.63 45.1312C350.139 46.5026 351.327 48.194 352.196 50.2055C353.11 52.2169 353.613 54.5483 353.704 57.1998C353.659 57.7483 353.43 58.2283 353.019 58.6398C352.607 59.0055 352.127 59.1883 351.579 59.1883H324.082L323.259 55.4855H350.276L349.384 56.3083V54.9369C349.202 52.7883 348.516 50.9598 347.327 49.4512C346.139 47.9426 344.699 46.7998 343.007 46.0226C341.316 45.2455 339.556 44.8569 337.727 44.8569C336.356 44.8569 334.939 45.1312 333.476 45.6798C332.059 46.2283 330.756 47.0969 329.567 48.2855C328.424 49.4283 327.487 50.914 326.756 52.7426C326.025 54.5255 325.659 56.6512 325.659 59.1198C325.659 61.8169 326.207 64.2626 327.304 66.4569C328.402 68.6512 329.979 70.3883 332.036 71.6683C334.139 72.9483 336.63 73.5883 339.51 73.5883C341.11 73.5883 342.55 73.3598 343.83 72.9026C345.11 72.4455 346.23 71.8512 347.19 71.1198C348.15 70.3426 348.95 69.5426 349.59 68.7198C350.093 68.3083 350.596 68.1026 351.099 68.1026C351.556 68.1026 351.944 68.2855 352.264 68.6512C352.63 69.0169 352.813 69.4283 352.813 69.8855C352.813 70.434 352.584 70.914 352.127 71.3255C350.756 72.9712 348.973 74.4112 346.779 75.6455C344.584 76.834 342.184 77.4283 339.579 77.4283Z" fill="#022601"/>
<path d="M303.676 40.8798C305.87 40.8798 307.882 41.1312 309.71 41.634C311.539 42.0912 313.002 42.7312 314.099 43.554C315.242 44.3769 315.813 45.2683 315.813 46.2283C315.813 46.6855 315.653 47.1426 315.333 47.5998C315.013 48.0112 314.579 48.2169 314.03 48.2169C313.482 48.2169 313.025 48.0798 312.659 47.8055C312.339 47.5312 311.996 47.2112 311.63 46.8455C311.31 46.4798 310.83 46.1369 310.19 45.8169C309.596 45.5426 308.75 45.2912 307.653 45.0626C306.556 44.834 305.299 44.7198 303.882 44.7198C301.322 44.7198 299.013 45.3598 296.956 46.6398C294.899 47.9198 293.276 49.6569 292.088 51.8512C290.899 53.9998 290.305 56.4226 290.305 59.1198C290.305 61.8626 290.876 64.3312 292.019 66.5255C293.162 68.7198 294.739 70.4569 296.75 71.7369C298.762 72.9712 301.116 73.5883 303.813 73.5883C305.642 73.5883 307.059 73.4283 308.065 73.1083C309.07 72.7883 309.939 72.4226 310.67 72.0112C311.539 71.5083 312.156 71.0283 312.522 70.5712C312.933 70.0683 313.459 69.8169 314.099 69.8169C314.693 69.8169 315.128 69.9998 315.402 70.3655C315.722 70.6855 315.882 71.1198 315.882 71.6683C315.882 72.3998 315.333 73.2226 314.236 74.1369C313.185 75.0055 311.722 75.7826 309.848 76.4683C307.973 77.1083 305.825 77.4283 303.402 77.4283C299.973 77.4283 296.956 76.6283 294.35 75.0283C291.79 73.4283 289.779 71.2569 288.316 68.514C286.899 65.7255 286.19 62.594 286.19 59.1198C286.19 55.7826 286.922 52.7426 288.385 49.9998C289.848 47.2569 291.882 45.0626 294.488 43.4169C297.139 41.7255 300.202 40.8798 303.676 40.8798Z" fill="#022601"/>
<path d="M265.131 40.8798C268.148 40.8798 270.548 41.4969 272.331 42.7312C274.159 43.9198 275.462 45.5655 276.239 47.6683C277.062 49.7255 277.474 52.0112 277.474 54.5255V74.6855C277.474 75.234 277.268 75.714 276.856 76.1255C276.445 76.5369 275.965 76.7426 275.416 76.7426C274.776 76.7426 274.274 76.5369 273.908 76.1255C273.542 75.714 273.359 75.234 273.359 74.6855V54.7312C273.359 52.9026 273.062 51.234 272.468 49.7255C271.874 48.2169 270.891 47.0055 269.519 46.0912C268.194 45.1769 266.434 44.7198 264.239 44.7198C262.274 44.7198 260.399 45.1769 258.616 46.0912C256.879 47.0055 255.462 48.2169 254.365 49.7255C253.268 51.234 252.719 52.9026 252.719 54.7312V74.6855C252.719 75.234 252.514 75.714 252.102 76.1255C251.691 76.5369 251.211 76.7426 250.662 76.7426C250.022 76.7426 249.519 76.5369 249.154 76.1255C248.788 75.714 248.605 75.234 248.605 74.6855V43.9655C248.605 43.4169 248.788 42.9369 249.154 42.5255C249.565 42.114 250.068 41.9083 250.662 41.9083C251.256 41.9083 251.736 42.114 252.102 42.5255C252.514 42.9369 252.719 43.4169 252.719 43.9655V49.7255L251.142 52.194C251.234 50.7312 251.691 49.3369 252.514 48.0112C253.382 46.6398 254.479 45.4283 255.805 44.3769C257.131 43.2798 258.594 42.434 260.194 41.8398C261.839 41.1998 263.485 40.8798 265.131 40.8798Z" fill="#022601"/>
<path d="M235.751 41.7026C236.346 41.7026 236.826 41.9083 237.191 42.3198C237.603 42.7312 237.809 43.234 237.809 43.8283V74.6855C237.809 75.2341 237.603 75.7141 237.191 76.1255C236.78 76.5369 236.3 76.7426 235.751 76.7426C235.157 76.7426 234.654 76.5369 234.243 76.1255C233.877 75.7141 233.694 75.2341 233.694 74.6855V66.5255L234.86 65.9769C234.86 67.2569 234.494 68.5598 233.763 69.8855C233.077 71.2112 232.117 72.4455 230.883 73.5883C229.649 74.7312 228.186 75.6683 226.494 76.3998C224.849 77.0855 223.066 77.4283 221.146 77.4283C218.037 77.4283 215.249 76.6283 212.78 75.0283C210.357 73.4283 208.437 71.234 207.02 68.4455C205.649 65.6569 204.963 62.5255 204.963 59.0512C204.963 55.4855 205.671 52.354 207.089 49.6569C208.506 46.914 210.426 44.7655 212.849 43.2112C215.271 41.6569 218.014 40.8798 221.077 40.8798C223.043 40.8798 224.871 41.2226 226.563 41.9083C228.3 42.594 229.809 43.5312 231.089 44.7198C232.369 45.9083 233.351 47.2798 234.037 48.834C234.769 50.3426 235.134 51.9198 235.134 53.5655L233.694 52.5369V43.8283C233.694 43.234 233.877 42.7312 234.243 42.3198C234.654 41.9083 235.157 41.7026 235.751 41.7026ZM221.489 73.5883C223.911 73.5883 226.06 72.9712 227.934 71.7369C229.809 70.4569 231.271 68.7198 232.323 66.5255C233.42 64.2855 233.969 61.794 233.969 59.0512C233.969 56.354 233.42 53.9312 232.323 51.7826C231.271 49.634 229.809 47.9198 227.934 46.6398C226.06 45.3598 223.911 44.7198 221.489 44.7198C219.111 44.7198 216.963 45.3369 215.043 46.5712C213.169 47.8055 211.683 49.4969 210.586 51.6455C209.534 53.794 209.009 56.2626 209.009 59.0512C209.009 61.794 209.534 64.2855 210.586 66.5255C211.683 68.7198 213.169 70.4569 215.043 71.7369C216.917 72.9712 219.066 73.5883 221.489 73.5883Z" fill="#022601"/>
<path d="M181.521 41.8397H197.498C198.047 41.8397 198.504 42.0454 198.869 42.4569C199.235 42.8226 199.418 43.2797 199.418 43.8283C199.418 44.3311 199.235 44.7654 198.869 45.1311C198.504 45.4969 198.047 45.6797 197.498 45.6797H181.521C180.972 45.6797 180.492 45.4969 180.081 45.1311C179.715 44.7197 179.532 44.2626 179.532 43.7597C179.532 43.2111 179.715 42.754 180.081 42.3883C180.492 42.0226 180.972 41.8397 181.521 41.8397ZM188.584 32.1711C189.178 32.1711 189.658 32.3769 190.024 32.7883C190.435 33.1997 190.641 33.6797 190.641 34.2283V68.6511C190.641 69.9311 190.801 70.8912 191.121 71.5312C191.487 72.1712 191.944 72.6054 192.492 72.834C193.041 73.0169 193.589 73.1083 194.138 73.1083C194.504 73.1083 194.824 73.0626 195.098 72.9711C195.418 72.834 195.761 72.7654 196.127 72.7654C196.538 72.7654 196.881 72.9254 197.155 73.2454C197.475 73.5654 197.635 73.9769 197.635 74.4797C197.635 75.1197 197.269 75.6683 196.538 76.1254C195.807 76.5369 194.938 76.7426 193.932 76.7426C193.521 76.7426 192.904 76.7197 192.081 76.674C191.258 76.5826 190.412 76.3311 189.544 75.9197C188.675 75.4626 187.944 74.6854 187.349 73.5883C186.801 72.4911 186.527 70.914 186.527 68.8569V34.2283C186.527 33.6797 186.709 33.1997 187.075 32.7883C187.487 32.3769 187.989 32.1711 188.584 32.1711Z" fill="#022601"/>
<path d="M149.652 71.1883C149.286 70.6398 149.104 70.114 149.104 69.6112C149.149 69.0626 149.446 68.6283 149.995 68.3083C150.361 67.9883 150.772 67.8512 151.229 67.8969C151.732 67.9426 152.189 68.1712 152.601 68.5826C153.835 70.1826 155.321 71.4855 157.058 72.4912C158.841 73.4512 160.944 73.9312 163.366 73.9312C164.646 73.9312 165.904 73.7255 167.138 73.314C168.418 72.8569 169.469 72.194 170.292 71.3255C171.115 70.4112 171.526 69.2683 171.526 67.8969C171.526 66.4798 171.115 65.3369 170.292 64.4683C169.469 63.5998 168.395 62.914 167.069 62.4112C165.789 61.9083 164.418 61.474 162.955 61.1083C161.401 60.6969 159.892 60.2398 158.429 59.7369C156.966 59.1883 155.664 58.5255 154.521 57.7483C153.424 56.9255 152.532 55.9426 151.846 54.7998C151.161 53.6569 150.818 52.2626 150.818 50.6169C150.818 48.6969 151.344 47.0055 152.395 45.5426C153.446 44.0798 154.864 42.9369 156.646 42.114C158.475 41.2912 160.532 40.8798 162.818 40.8798C163.961 40.8798 165.195 41.0398 166.521 41.3598C167.846 41.634 169.149 42.114 170.429 42.7998C171.709 43.4855 172.852 44.4226 173.858 45.6112C174.269 46.0226 174.475 46.5026 174.475 47.0512C174.475 47.554 174.246 48.0112 173.789 48.4226C173.424 48.6969 172.989 48.834 172.486 48.834C172.029 48.834 171.641 48.6512 171.321 48.2855C170.224 47.0512 168.921 46.114 167.412 45.474C165.904 44.834 164.281 44.514 162.544 44.514C161.218 44.514 159.961 44.7426 158.772 45.1998C157.629 45.6112 156.669 46.2512 155.892 47.1198C155.115 47.9883 154.726 49.1312 154.726 50.5483C154.818 51.874 155.275 52.9483 156.098 53.7712C156.966 54.594 158.086 55.2798 159.458 55.8283C160.875 56.3769 162.452 56.8798 164.189 57.3369C165.652 57.7026 167.046 58.1369 168.372 58.6398C169.744 59.1426 170.932 59.7826 171.938 60.5598C172.989 61.2912 173.812 62.2283 174.406 63.3712C175.046 64.514 175.366 65.9541 175.366 67.6912C175.366 69.7026 174.795 71.4398 173.652 72.9026C172.555 74.3655 171.069 75.4855 169.195 76.2626C167.321 77.0398 165.241 77.4283 162.955 77.4283C160.486 77.4283 158.086 76.9483 155.755 75.9883C153.469 75.0283 151.435 73.4283 149.652 71.1883Z" fill="#022601"/>
<path d="M140.953 74.6856C140.953 75.2342 140.747 75.7142 140.336 76.1256C139.924 76.537 139.444 76.7428 138.896 76.7428C138.301 76.7428 137.798 76.537 137.387 76.1256C137.021 75.7142 136.838 75.2342 136.838 74.6856V43.1428C136.838 42.5942 137.021 42.1142 137.387 41.7028C137.798 41.2913 138.301 41.0856 138.896 41.0856C139.49 41.0856 139.97 41.2913 140.336 41.7028C140.747 42.1142 140.953 42.5942 140.953 43.1428V74.6856ZM138.896 36.4913C137.936 36.4913 137.204 36.2856 136.701 35.8742C136.244 35.417 136.016 34.777 136.016 33.9542V33.2685C136.016 32.4456 136.267 31.8285 136.77 31.417C137.318 30.9599 138.05 30.7313 138.964 30.7313C139.833 30.7313 140.496 30.9599 140.953 31.417C141.456 31.8285 141.707 32.4456 141.707 33.2685V33.9542C141.707 34.777 141.456 35.417 140.953 35.8742C140.496 36.2856 139.81 36.4913 138.896 36.4913Z" fill="#022601"/>
<path d="M124.122 26C124.716 26 125.196 26.2057 125.562 26.6171C125.973 26.9829 126.179 27.4629 126.179 28.0571V74.6857C126.179 75.2343 125.973 75.7143 125.562 76.1257C125.151 76.5371 124.671 76.7429 124.122 76.7429C123.528 76.7429 123.025 76.5371 122.613 76.1257C122.248 75.7143 122.065 75.2343 122.065 74.6857V66.5257L123.231 65.5657C123.231 66.8457 122.888 68.1943 122.202 69.6114C121.516 70.9829 120.533 72.2629 119.253 73.4514C118.019 74.64 116.556 75.6 114.865 76.3314C113.219 77.0629 111.436 77.4286 109.516 77.4286C106.453 77.4286 103.688 76.6286 101.219 75.0286C98.7964 73.4286 96.8764 71.2571 95.4592 68.5143C94.0421 65.7714 93.3335 62.64 93.3335 59.12C93.3335 55.6457 94.0421 52.5371 95.4592 49.7943C96.8764 47.0057 98.7964 44.8343 101.219 43.28C103.642 41.68 106.385 40.88 109.448 40.88C111.322 40.88 113.105 41.2229 114.796 41.9086C116.488 42.5943 117.973 43.5314 119.253 44.72C120.579 45.9086 121.608 47.28 122.339 48.8343C123.116 50.3429 123.505 51.92 123.505 53.5657L122.065 52.5371V28.0571C122.065 27.5086 122.248 27.0286 122.613 26.6171C123.025 26.2057 123.528 26 124.122 26ZM109.859 73.5886C112.328 73.5886 114.476 72.9714 116.305 71.7371C118.179 70.4571 119.642 68.7429 120.693 66.5943C121.791 64.4 122.339 61.9086 122.339 59.12C122.339 56.3771 121.791 53.9314 120.693 51.7829C119.642 49.5886 118.179 47.8743 116.305 46.64C114.431 45.36 112.282 44.72 109.859 44.72C107.482 44.72 105.333 45.36 103.413 46.64C101.539 47.8743 100.053 49.5886 98.9564 51.7829C97.9049 53.9314 97.3792 56.3771 97.3792 59.12C97.3792 61.8629 97.9049 64.3314 98.9564 66.5257C100.053 68.72 101.539 70.4571 103.413 71.7371C105.333 72.9714 107.482 73.5886 109.859 73.5886Z" fill="#022601"/>
</svg>
