<svg width="70" height="104" viewBox="0 0 70 104" fill="none" xmlns="http://www.w3.org/2000/svg">
<path d="M47.4896 44.8605C55.1562 55.7079 57.2803 67.6595 53.3086 80.3906C51.2851 86.886 48.1684 92.9398 45.491 99.1754H45.4914C45.1072 100.029 44.55 100.786 43.8573 101.397C43.303 101.923 42.6013 102.254 41.8534 102.34C41.1051 102.426 40.3502 102.265 39.6973 101.878C39.0038 101.573 38.4306 101.035 38.0702 100.351C37.7098 99.6671 37.5834 98.8776 37.7114 98.1101C37.9835 96.8487 38.4057 95.6269 38.9682 94.4729C40.9664 89.7311 43.2416 85.0933 45.0262 80.2608C49.1862 68.9847 47.5399 58.5011 40.4763 48.9138C39.0939 47.043 37.6987 45.1725 36.4292 43.2108C33.5383 38.7418 34.9085 35.2865 39.9862 34.1172C41.9843 33.6626 44.0333 33.3509 45.9938 32.8181C53.4341 30.6356 56.7774 26.1539 56.8025 18.1254L56.803 18.125C56.6757 15.6545 56.373 13.1971 55.898 10.7723C55.7724 9.96674 55.4708 9.18733 55.2945 8.38222C54.6158 5.45927 55.3952 3.48487 57.4564 2.84799C59.5176 2.21156 61.2269 3.43241 62.2198 6.29068V6.29026C63.9729 11.8926 64.4332 17.8403 63.5646 23.6591C62.4084 31.3369 58.0217 36.65 50.9083 39.469C49.1359 40.1706 47.3137 40.7681 45.2276 41.5086C46.0945 42.795 46.7733 43.8472 47.4897 44.8603L47.4896 44.8605ZM69.2831 59.1505H69.2835C68.9346 52.773 67.3083 46.5406 64.5073 40.8463C63.4768 38.586 61.6292 37.8193 59.7815 38.5987C57.9339 39.378 57.2679 41.1968 57.9339 43.6521C58.2542 44.7855 58.6445 45.8963 59.1027 46.9781C61.7326 53.4203 62.539 60.5027 61.4282 67.3998C60.2213 76.1298 58.5373 84.7946 57.0166 93.5375C56.5956 95.4916 56.2851 97.4698 56.0867 99.4612C55.9242 100.464 56.1476 101.492 56.7089 102.328C57.2703 103.162 58.1246 103.737 59.0904 103.93C60.1165 104.129 61.177 103.9 62.0406 103.294C62.9047 102.688 63.502 101.755 63.7029 100.696C64.2184 98.903 64.5199 97.0322 64.9598 95.1876V95.1872C67.3131 84.3792 68.7761 73.3842 69.3333 62.3202C69.2834 61.2161 69.3211 60.1509 69.2834 59.0983L69.2831 59.1505ZM38.8803 24.9714C35.489 24.897 32.2594 23.4592 29.8774 20.9634C27.4955 18.4671 26.1486 15.1095 26.1233 11.6038C26.2055 8.45209 27.4922 5.46234 29.7015 3.28832C31.9108 1.11429 34.863 -0.0667977 37.9123 0.00292007C44.6616 0.249877 50.5812 6.49837 50.4806 13.3316C50.5142 16.4905 49.2917 19.5255 47.0984 21.7258C44.9054 23.9264 41.9344 25.0999 38.8803 24.9713V24.9714ZM38.9555 16.6829C39.8785 16.7781 40.7962 16.4546 41.4713 15.797C42.146 15.1394 42.5121 14.2115 42.4749 13.2534C42.3837 11.9572 41.826 10.7431 40.9116 9.85083C39.9972 8.95897 38.7928 8.45322 37.5355 8.43374C36.608 8.37327 35.7026 8.7416 35.064 9.43893C34.4253 10.1367 34.1197 11.0916 34.2302 12.0451C34.323 13.2859 34.8574 14.4467 35.7304 15.303C36.6031 16.1598 37.7523 16.6516 38.9555 16.6829ZM23.0691 23.1788V23.1784C22.525 23.3429 22.0018 23.5742 21.5108 23.8672C16.1189 26.8938 10.6643 29.8819 5.36042 33.0907C2.19864 35.0097 0.187384 38.4485 0.01237 42.2338C-0.16233 46.0194 1.52246 49.6405 4.4931 51.8623C5.05565 52.3765 5.76177 52.6924 6.50969 52.7647C7.25716 52.837 8.00794 52.6624 8.65312 52.2653C9.27785 51.9469 9.78595 51.428 10.1006 50.7865C10.4156 50.1446 10.5207 49.4142 10.4001 48.7055C10.1701 47.5856 9.80723 46.4988 9.31918 45.4708C8.77872 44.1717 8.06234 42.9767 7.29567 41.3008C8.76606 40.2744 9.80934 39.43 11.0031 38.7026C15.2511 36.1044 19.5117 33.675 23.7726 31.1419C24.6616 30.6543 25.5031 30.08 26.2863 29.4271C26.9494 28.8592 27.4044 28.0743 27.5758 27.2018C27.7476 26.3299 27.6249 25.4236 27.2288 24.6332C26.7927 23.9443 26.148 23.4242 25.3951 23.154C24.6427 22.8838 23.8245 22.8787 23.0688 23.1392L23.0691 23.1788Z" fill="#022601"/>
</svg>
